<svg width="51" height="49" viewBox="0 0 51 49" fill="none" xmlns="http://www.w3.org/2000/svg">
<path d="M31 37.288L8.6 27.304L8.6 22.184L31 12.168V17.608L11.224 25.8V23.752L31 31.976V37.288ZM26.2 32.296L22.264 30.92V19.4L26.2 17.992V32.296Z" fill="white"/>
<path d="M37.76 39.56C35.5467 39.56 33.4933 39.2133 31.6 38.52C29.7333 37.8 28.1067 36.7867 26.72 35.48C25.36 34.1733 24.2933 32.64 23.52 30.88C22.7467 29.0933 22.36 27.1333 22.36 25C22.36 22.8667 22.7467 20.92 23.52 19.16C24.2933 17.3733 25.36 15.8267 26.72 14.52C28.1067 13.2133 29.7333 12.2133 31.6 11.52C33.4933 10.8 35.5467 10.44 37.76 10.44C40.3467 10.44 42.6533 10.8933 44.68 11.8C46.7333 12.7067 48.44 14.0133 49.8 15.72L44.76 20.28C43.8533 19.2133 42.8533 18.4 41.76 17.84C40.6933 17.28 39.4933 17 38.16 17C37.0133 17 35.96 17.1867 35 17.56C34.04 17.9333 33.2133 18.48 32.52 19.2C31.8533 19.8933 31.32 20.7333 30.92 21.72C30.5467 22.7067 30.36 23.8 30.36 25C30.36 26.2 30.5467 27.2933 30.92 28.28C31.32 29.2667 31.8533 30.12 32.52 30.84C33.2133 31.5333 34.04 32.0667 35 32.44C35.96 32.8133 37.0133 33 38.16 33C39.4933 33 40.6933 32.72 41.76 32.16C42.8533 31.6 43.8533 30.7867 44.76 29.72L49.8 34.28C48.44 35.96 46.7333 37.2667 44.68 38.2C42.6533 39.1067 40.3467 39.56 37.76 39.56Z" fill="white"/>
</svg>
